<?xml version="1.0" encoding="UTF-8" standalone="no"?>
<svg
   xmlns:dc="http://purl.org/dc/elements/1.1/"
   xmlns:cc="http://creativecommons.org/ns#"
   xmlns:rdf="http://www.w3.org/1999/02/22-rdf-syntax-ns#"
   xmlns:svg="http://www.w3.org/2000/svg"
   xmlns="http://www.w3.org/2000/svg"
   xmlns:sodipodi="http://sodipodi.sourceforge.net/DTD/sodipodi-0.dtd"
   xmlns:inkscape="http://www.inkscape.org/namespaces/inkscape"
   width="1593px"
   height="785px"
   viewBox="0 0 1593 785"
   version="1.1"
   id="svg846"
   sodipodi:docname="GSN-green-vector_logo.svg"
   inkscape:version="1.0 (4035a4f, 2020-05-01)">
  <metadata
     id="metadata852">
    <rdf:RDF>
      <cc:Work
         rdf:about="">
        <dc:format>image/svg+xml</dc:format>
        <dc:type
           rdf:resource="http://purl.org/dc/dcmitype/StillImage" />
        <dc:title>GSN-green-vector_logo</dc:title>
      </cc:Work>
    </rdf:RDF>
  </metadata>
  <defs
     id="defs850" />
  <sodipodi:namedview
     inkscape:document-rotation="0"
     pagecolor="#ffffff"
     bordercolor="#666666"
     borderopacity="1"
     objecttolerance="10"
     gridtolerance="10"
     guidetolerance="10"
     inkscape:pageopacity="0"
     inkscape:pageshadow="2"
     inkscape:window-width="1261"
     inkscape:window-height="741"
     id="namedview848"
     showgrid="false"
     inkscape:zoom="0.44695543"
     inkscape:cx="796.5"
     inkscape:cy="392.5"
     inkscape:window-x="1993"
     inkscape:window-y="156"
     inkscape:window-maximized="0"
     inkscape:current-layer="GSN" />
  <!-- Generator: Sketch 58 (84663) - https://sketch.com -->
  <title
     id="title833">GSN-green-vector_logo</title>
  <desc
     id="desc835">Created with Sketch.</desc>
  <g
     id="GSN-green-vector_logo"
     stroke="none"
     stroke-width="1"
     fill="none"
     fill-rule="evenodd">
    <path
       d="M390.313781,455.676 L204.791061,710 L26.0354373,459.487 L205.790042,563.5 L390.313781,455.676 Z M204.791061,46 L395,408.047 L296.4785,466.414239 C303.656979,450.47107 307.686082,432.551073 307.686082,413.609375 C307.686082,334.046875 240.671845,228.3125 196.799215,199 C195.269575,220.036041 183.171157,267.382473 154.372935,308.921875 C152.821469,311.159755 132.456266,302.616369 130.922033,304.881561 L129.494824,306.99737 C106.24102,341.614713 85.9123477,379.090011 85.9123477,413.609375 C85.9123477,428.586585 88.4313722,442.925019 93.0345263,456.15251 L9.63317173,405.267 L204.791061,46 Z M0.998980787,421.161 L0.998980787,424.4 L0,423 L0.998980787,421.161 Z"
       id="Shape"
       fill="#3E9E6F" />
    <path
       d="M204.794141,46 L206,48.299 L205.999951,205.912133 C202.851792,203.260263 199.781568,200.92665 196.817191,198.943109 C195.290402,219.971328 183.214533,267.300155 154.469988,308.824111 C152.921414,311.061159 132.594168,302.520949 131.062795,304.785299 L129.638246,306.900321 C106.427784,341.504792 86.1370017,378.966155 86.1370017,413.472684 C86.1370017,428.444324 88.6513311,442.777428 93.2459055,456 L10,405.133411 L204.794141,46 Z"
       id="Combined-Shape"
       fill="#4EC389" />
    <polygon
       id="Path"
       fill="#4EC389"
       points="204.999655 710 26 459 206 563.215202" />
    <path
       d="M199,343 C224.717391,357.7875 264,411.128125 264,451.265625 C264,484.808294 234.898509,512 199,512 C163.101491,512 134,484.808294 134,451.265625 C134,411.128125 197.304348,363.06875 199,343 Z"
       id="path840"
       fill="#56D696" />
    <g
       style="font-weight:bold;font-size:482px;font-family:RedHatDisplay-Bold, 'Red Hat Display';letter-spacing:-11.3242;fill:#3e9e6f"
       id="GSN"
       aria-label="GSN">
      <path
         id="path846"
         d="m 859.29736,529.99512 q -23.53515,9.17871 -62.36816,18.35742 -38.83301,8.94336 -77.43066,8.94336 -89.4336,0 -140.03418,-48.48242 -50.60059,-48.71778 -50.60059,-134.38575 0,-81.66699 51.07129,-131.56152 51.07129,-50.12988 142.38769,-50.12988 34.59668,0 65.89844,6.35449 31.30176,6.11914 69.66406,24.71191 v 82.1377 h -10.12011 q -6.58985,-4.94238 -19.29883,-13.88574 -12.70899,-9.17871 -24.47656,-15.53321 -13.65039,-7.53125 -32.00782,-12.94433 -18.12207,-5.41309 -38.59765,-5.41309 -24.00586,0 -43.54004,7.06055 -19.53418,7.06055 -35.06738,21.65234 -14.82715,14.1211 -23.53516,36.00879 -8.47266,21.65235 -8.47266,50.12988 0,58.13184 30.83106,88.9629 30.83105,30.83105 91.08105,30.83105 5.17774,0 11.29688,-0.23535 6.35449,-0.23535 11.53222,-0.70606 v -68.72265 h -69.89941 v -66.13379 h 161.68652 z" />
      <path
         id="path848"
         d="m 1209.2378,439.85547 q 0,51.77734 -44.0107,84.25586 -43.7754,32.24316 -119.0879,32.24316 -43.54,0 -76.01856,-7.53125 -32.24317,-7.7666 -60.48536,-19.53418 v -84.02051 h 9.88477 q 28.00684,22.3584 62.60352,34.36133 34.83203,12.00293 66.83983,12.00293 8.2373,0 21.6524,-1.41211 13.415,-1.41211 21.8876,-4.70703 10.3555,-4.23633 16.9454,-10.59082 6.8252,-6.35449 6.8252,-18.82812 0,-11.53223 -9.8848,-19.76953 -9.6494,-8.47266 -28.4775,-12.94434 -19.7696,-4.70703 -41.8926,-8.70801 -21.8877,-4.23633 -41.18655,-10.59082 -44.24609,-14.35644 -63.78027,-38.83301 -19.29883,-24.71191 -19.29883,-61.1914 0,-48.95313 43.77539,-79.78418 44.01074,-31.06641 112.96876,-31.06641 34.5967,0 68.2519,6.8252 33.8907,6.58984 58.6026,16.70996 v 80.72558 h -9.6494 q -21.1817,-16.94531 -52.0127,-28.24218 -30.5957,-11.53223 -62.6035,-11.53223 -11.2969,0 -22.5938,1.64746 -11.0615,1.41211 -21.417,5.64844 -9.1787,3.53027 -15.7685,10.82617 -6.5899,7.06055 -6.5899,16.23926 0,13.88574 10.5908,21.41699 10.5909,7.2959 40.0098,13.41504 19.2988,4.00098 36.9502,7.7666 17.8867,3.76563 38.3623,10.35547 40.2451,13.17969 59.3086,36.00879 19.2988,22.59375 19.2988,58.83789 z" />
      <path
         id="path850"
         d="m 1578.7125,550 h -87.0801 L 1342.8902,309.4707 V 550 h -82.8438 V 199.56152 h 108.0264 l 127.7959,200.75489 V 199.56152 h 82.8438 z" />
    </g>
  </g>
</svg>
